<svg width="522" height="455" viewBox="0 0 522 455" fill="none" xmlns="http://www.w3.org/2000/svg">
<path d="M250.846 371.284V393.075H257.049L255.848 369.683L250.846 371.284Z" fill="#AAABB0"/>
<path d="M157.67 366.888V388.679H163.879L162.678 365.286L157.67 366.888Z" fill="#AAABB0"/>
<path d="M266.056 334.899C266.056 332.69 264.264 330.898 262.053 330.898C259.843 330.898 258.051 332.69 258.051 334.899V365.688C258.051 367.897 259.843 369.688 262.053 369.688C264.264 369.688 266.056 367.897 266.056 365.688V334.899Z" fill="#AAABB0"/>
<path d="M163.375 326.299C163.375 324.089 161.583 322.298 159.373 322.298C157.162 322.298 155.371 324.089 155.371 326.299V365.682C155.371 367.892 157.162 369.683 159.373 369.683C161.583 369.683 163.375 367.892 163.375 365.682V326.299Z" fill="#AAABB0"/>
<path d="M276.27 98.7713C276.27 98.7713 284.274 95.3704 285.475 98.7713C286.676 102.172 287.276 131.563 287.276 131.563H279.668L276.27 98.7713Z" fill="#AAABB0"/>
<path d="M188.601 98.7713C188.601 98.7713 180.591 95.3704 179.39 98.7713C178.189 102.172 177.588 131.563 177.588 131.563H185.196L188.601 98.7713Z" fill="#AAABB0"/>
<path d="M189.796 69.5783L188.595 93.9727H193.999V68.9785L189.796 69.5783Z" fill="#AAABB0"/>
<path d="M185.196 131.562L186.8 96.3715C186.8 96.3715 186.199 88.5739 205.21 90.9732C224.221 93.3724 279.872 98.1709 279.872 98.1709V131.562H185.196Z" fill="#33323D"/>
<path d="M261.258 316.906L258.255 370.685C258.255 370.685 214.217 395.08 160.775 371.885L165.579 315.305L261.258 316.906Z" fill="#33323D"/>
<path d="M219.423 105.165L220.42 139.954H282.473L278.87 93.9727L219.423 105.165Z" fill="#444053"/>
<path d="M225.728 293.907H167.278V367.882H225.728V293.907Z" fill="#4C4981"/>
<path d="M204.213 324.103C204.213 324.103 212.62 317.505 214.019 319.503C215.418 321.5 209.023 330.101 206.417 329.1C203.811 328.098 204.213 324.103 204.213 324.103Z" fill="#FFB9B9"/>
<path d="M417.532 129.56H73.8491C62.8034 129.56 53.8491 138.514 53.8491 149.56V301.5C53.8491 312.545 62.8034 321.5 73.8491 321.5H417.532C428.577 321.5 437.532 312.545 437.532 301.5V149.56C437.532 138.514 428.577 129.56 417.532 129.56Z" fill="#F9844A" fill-opacity="0.76"/>
<path d="M185.394 68.1804C185.394 68.1804 182.392 40.1871 185.394 36.7922C188.397 33.3972 238.836 1.19928 285.475 38.9875C285.475 38.9875 289.876 39.1914 289.078 49.1843C288.607 55.5089 288.639 61.8609 289.174 68.1804C289.174 68.1804 188.799 75.3782 185.394 68.1804Z" fill="#33323D"/>
<path opacity="0.1" d="M185.394 68.1804C185.394 68.1804 182.392 40.1871 185.394 36.7922C188.397 33.3972 238.836 1.19928 285.475 38.9875C285.475 38.9875 289.876 39.1914 289.078 49.1843C288.607 55.5089 288.639 61.8609 289.174 68.1804C289.174 68.1804 188.799 75.3782 185.394 68.1804Z" fill="black"/>
<path d="M185.394 71.7795C185.394 71.7795 182.392 43.7862 185.394 40.3913C188.397 36.9964 238.836 4.7984 285.475 42.5866C285.475 42.5866 289.876 42.7906 289.078 52.7834C288.607 59.108 288.639 65.46 289.174 71.7795C289.174 71.7795 188.799 78.9773 185.394 71.7795Z" fill="#33323D"/>
<path d="M290.879 58.9854C290.879 58.9854 294.079 70.9816 293.083 72.979C292.086 74.9764 292.266 80.5786 292.266 80.5786C292.266 80.5786 292.482 84.1775 290.879 84.5734C289.276 84.9692 287.877 85.1732 289.174 86.3728C290.471 87.5724 289.174 89.3719 289.174 89.3719C289.174 89.3719 288.471 92.173 289.174 93.9724C289.876 95.7719 285.066 96.5216 285.475 98.7709C285.883 101.02 287.228 107.366 285.475 107.57C283.721 107.774 286.075 115.566 284.496 115.566C282.917 115.566 281.794 129.559 281.794 129.559C281.794 129.559 270.685 120.166 263.281 122.763C263.281 122.763 263.882 114.966 266.284 112.165C268.685 109.364 267.959 102.172 267.959 102.172L279.872 66.381L290.879 58.9854Z" fill="#FFADAD"/>
<path d="M231.432 224.403C228.832 227.276 226.028 211.933 226.028 211.933C226.028 211.933 218.624 222.129 213.821 215.334C210.494 210.625 213.118 197.285 215.022 189.542C215.874 186.099 216.595 183.759 216.595 183.759L227.403 181.96C227.403 181.96 227.439 184.311 227.68 187.166C228.004 191.023 228.706 195.81 230.202 196.955C232.838 198.941 234.038 221.506 231.432 224.403Z" fill="#AE6E79"/>
<path opacity="0.1" d="M225.83 44.788C225.83 44.788 207.011 44.5901 202.412 54.583C197.812 64.5759 197.608 67.9828 195.806 69.5783C194.005 71.1738 215.418 79.5772 215.418 79.5772L216.42 113.964C216.42 113.964 220.624 109.712 227.427 111.637C234.23 113.563 242.841 111.637 242.841 111.637C242.841 111.637 242.439 110.911 248.047 111.637C253.656 112.363 271.466 102.97 271.466 102.97C271.466 102.97 271.76 87.9266 271.364 84.7236C270.967 81.5206 284.07 57.9839 284.07 57.9839C284.07 57.9839 294.278 48.189 283.673 44.788C283.673 44.788 279.92 39.1378 270.265 39.1918C260.609 39.2458 225.83 44.788 225.83 44.788Z" fill="black"/>
<path d="M225.83 44.1884C225.83 44.1884 207.011 43.9905 202.412 53.9834C197.812 63.9763 197.608 67.3832 195.806 68.9787C194.005 70.5742 215.418 78.9776 215.418 78.9776L216.42 113.365C216.42 113.365 220.624 109.112 227.427 111.038C234.23 112.963 242.841 111.038 242.841 111.038C242.841 111.038 242.439 110.312 248.047 111.038C253.656 111.763 271.466 102.37 271.466 102.37C271.466 102.37 278.467 90.9738 278.071 87.7768C277.674 84.5798 292.08 60.3834 292.08 60.3834C292.08 60.3834 294.283 47.5894 283.673 44.1884C283.673 44.1884 279.92 38.5382 270.265 38.5922C260.609 38.6462 225.83 44.1884 225.83 44.1884Z" fill="#FFADAD"/>
<path opacity="0.1" d="M227.728 187.146C223.603 185.863 217.129 188.694 215.07 189.546C215.922 186.103 216.643 183.763 216.643 183.763L227.452 181.964C227.452 181.964 227.47 184.315 227.728 187.146Z" fill="black"/>
<path d="M201.607 68.9785H195.806C195.806 68.9785 194.605 81.1787 195.806 84.7776C197.007 88.3765 197.608 87.8546 197.205 90.5178C196.803 93.181 200.01 97.2597 200.01 97.2597C200.01 97.2597 200.406 107.313 202.411 111.055C204.417 114.798 200.208 131.581 200.208 131.581C201.356 134.478 203.054 137.126 205.21 139.379C208.614 142.773 210.416 155.37 209.413 160.168C208.41 164.967 212.217 166.766 212.217 166.766C212.217 166.766 213.82 189.163 214.421 189.163C215.021 189.163 226.628 183.165 230.231 188.359L227.427 167.768L227.631 127.982C227.631 127.982 223.824 122.98 225.83 118.583C227.835 114.186 224.226 103.786 224.226 103.786L219.02 80.5969L201.607 68.9785Z" fill="#FFADAD"/>
<path d="M165.579 385.079C165.579 385.079 157.172 383.28 156.974 385.079C156.776 386.878 146.964 405.275 159.178 410.673C171.392 416.071 204.009 427.666 257.055 412.67C257.055 412.67 260.453 413.87 259.655 406.474C258.856 399.079 258.856 390.879 258.856 390.879C258.856 390.879 250.846 388.678 244.841 389.482C238.836 390.285 186.595 400.878 165.579 385.079Z" fill="#33323D"/>
<path opacity="0.1" d="M165.579 385.079C165.579 385.079 157.172 383.28 156.974 385.079C156.776 386.878 146.964 405.275 159.178 410.673C171.392 416.071 204.009 427.666 257.055 412.67C257.055 412.67 260.453 413.87 259.655 406.474C258.856 399.079 258.856 390.879 258.856 390.879C258.856 390.879 250.846 388.678 244.841 389.482C238.836 390.285 186.595 400.878 165.579 385.079Z" fill="black"/>
<path d="M165.579 382.681C165.579 382.681 157.172 380.881 156.974 382.681C156.776 384.48 146.964 402.876 159.178 408.275C171.392 413.673 204.009 425.267 257.055 410.272C257.055 410.272 260.453 411.472 259.655 404.076C258.856 396.68 258.856 388.481 258.856 388.481C258.856 388.481 250.846 386.279 244.841 387.083C238.836 387.887 186.595 398.48 165.579 382.681Z" fill="#33323D"/>
<path d="M214.602 76.1645C214.085 79.0976 212.914 81.9167 212.734 84.8857C212.554 87.8548 213.701 91.2318 216.445 92.3954C217.211 92.6239 217.953 92.9252 218.661 93.2951C219.718 94.0089 220.15 95.3525 220.372 96.6121C220.667 98.2383 220.738 99.8972 220.582 101.543C220.432 103.198 220.078 104.979 220.894 106.425C222.33 108.986 226.07 108.608 228.917 107.889L227.938 115.464C227.86 116.064 227.812 116.742 228.25 117.15C228.457 117.295 228.692 117.398 228.939 117.452C229.187 117.505 229.442 117.509 229.691 117.462C232.165 117.306 234.711 116.964 236.831 115.662C238.951 114.361 240.53 111.937 240.128 109.496C239.659 106.665 236.729 104.416 237.125 101.573C237.431 99.3712 239.587 97.9737 241.004 96.2822C243.568 93.1872 243.706 88.4846 241.695 84.9817C239.683 81.4788 235.798 79.3075 231.799 78.9116C229.583 78.6897 227.277 78.9596 225.194 78.1918C224.469 77.9262 223.815 77.4967 223.284 76.9369C222.753 76.3771 222.358 75.7022 222.131 74.9648" fill="#FFADAD"/>
<path d="M144.767 342.895L146.862 338.336C146.862 338.336 158.175 327.81 160.775 327.072C163.375 326.334 173.985 323.119 175.589 323.119C177.192 323.119 206.417 321.518 206.417 321.518L209.815 329.519L173.139 337.563L160.775 346.56L144.767 342.895Z" fill="#FFD60A"/>
<path d="M232.885 220.132L230.97 234.857L230.231 240.526L221.626 241.725C221.626 241.725 220.696 239.734 219.381 236.675C215.388 227.39 207.87 208.244 212.229 204.939C218.024 200.536 219.435 215.136 219.435 215.136L226.04 211.933L232.885 220.132Z" fill="#FFB9B9"/>
<path d="M231.45 247.524H187.994V313.102H231.45V247.524Z" fill="white"/>
<path opacity="0.1" d="M231.45 247.524H187.994V313.102H231.45V247.524Z" fill="black"/>
<path d="M250.982 251.075L207.993 244.727L198.391 309.599L241.38 315.948L250.982 251.075Z" fill="white"/>
<path d="M234.167 254.182L212.04 250.914L207.098 284.302L229.225 287.57L234.167 254.182Z" fill="#591A92"/>
<path d="M231.533 297.762L204.726 293.803L203.652 301.054L230.46 305.013L231.533 297.762Z" fill="#591A92"/>
<path opacity="0.1" d="M242.841 82.0729C256.713 82.0729 267.959 70.8397 267.959 56.9827C267.959 43.1258 256.713 31.8926 242.841 31.8926C228.969 31.8926 217.724 43.1258 217.724 56.9827C217.724 70.8397 228.969 82.0729 242.841 82.0729Z" fill="black"/>
<path d="M242.841 81.4723C256.713 81.4723 267.959 70.2391 267.959 56.3822C267.959 42.5252 256.713 31.292 242.841 31.292C228.969 31.292 217.724 42.5252 217.724 56.3822C217.724 70.2391 228.969 81.4723 242.841 81.4723Z" fill="#AE6E79"/>
<path d="M222.131 74.9763C221.96 74.33 222.022 73.6444 222.305 73.0389C223.26 71.0535 225.98 70.8796 228.184 70.9815C233.366 71.2214 239.052 71.2514 243.105 67.9825C244.787 66.6389 246.666 63.2619 249.11 63.9037C251.284 64.4736 252.191 67.4186 254.454 68.0724C256.094 68.5463 257.793 67.7905 259.462 67.4726C261.864 66.9988 264.326 67.3946 266.764 67.4126C269.202 67.4306 271.85 66.9688 273.513 65.1873C275.759 62.7881 275.393 59.0392 275.195 55.7523C274.948 51.5064 275.237 47.2463 276.053 43.0722C276.87 38.9215 278.125 34.279 275.831 30.7221C273.645 27.3331 269.118 26.4034 266.025 23.8062C263.131 21.407 261.6 17.5622 258.544 15.3369C254.694 12.5358 249.464 12.9376 244.733 13.4235L234.465 14.5151C231.817 14.7971 229.06 15.115 226.881 16.6925C222.948 19.5356 222.407 25.4437 218.684 28.5568C217.027 29.9363 214.907 30.6201 213.016 31.6518C211.124 32.6835 209.299 34.315 209.083 36.4503C208.903 38.2497 209.875 39.9112 210.35 41.6447C211.473 45.7834 209.719 50.0421 208.596 54.2108C207.474 58.3795 207.257 63.4419 210.518 66.207C211.178 66.7708 211.947 67.2027 212.59 67.7905C214.793 69.7999 215.094 73.1888 214.583 76.1159" fill="#444053"/>
<path d="M244.889 87.7227C245.221 87.7227 245.49 87.0513 245.49 86.2232C245.49 85.395 245.221 84.7236 244.889 84.7236C244.557 84.7236 244.289 85.395 244.289 86.2232C244.289 87.0513 244.557 87.7227 244.889 87.7227Z" fill="#444053"/>
<path d="M244.889 93.9727C245.221 93.9727 245.49 93.3013 245.49 92.4732C245.49 91.645 245.221 90.9736 244.889 90.9736C244.557 90.9736 244.289 91.645 244.289 92.4732C244.289 93.3013 244.557 93.9727 244.889 93.9727Z" fill="#444053"/>
<path d="M231.571 224.361C232.213 223.623 232.639 221.728 232.886 219.227L225.728 210.313C225.728 210.313 228.76 227.594 231.571 224.361Z" fill="#AE6E79"/>
<path opacity="0.1" d="M239.641 371.686C239.641 371.686 227.896 389.825 191.201 387.881C156.632 386.082 139.758 369.089 140.563 363.091C141.368 357.093 138.359 342.494 145.763 338.295C150.057 335.866 155.707 337.305 159.694 338.949C161.072 339.507 162.579 339.665 164.043 339.403C165.506 339.14 166.865 338.469 167.963 337.467C171.607 334.186 178.405 330.491 189.135 333.4C190.516 333.768 191.972 333.741 193.338 333.322C197.806 331.961 208.44 329.598 216.156 334.846C217.376 335.686 218.809 336.161 220.289 336.218C221.769 336.274 223.235 335.908 224.515 335.164L224.623 335.098C228.226 332.897 245.039 353.692 245.039 353.692C245.039 353.692 245.844 369.689 239.641 371.686Z" fill="black"/>
<path d="M239.641 372.286C239.641 372.286 227.896 390.424 191.201 388.481C156.632 386.682 139.758 369.689 140.563 363.691C141.368 357.693 138.359 343.093 145.763 338.894C150.057 336.465 155.707 337.905 159.694 339.548C161.072 340.107 162.579 340.265 164.043 340.002C165.506 339.74 166.865 339.069 167.963 338.067C171.607 334.786 178.405 331.091 189.135 334C190.516 334.368 191.972 334.341 193.338 333.922C197.806 332.56 208.44 330.197 216.156 335.446C217.376 336.285 218.809 336.761 220.289 336.817C221.769 336.873 223.235 336.508 224.515 335.763L224.623 335.697C228.226 333.496 245.039 354.292 245.039 354.292C245.039 354.292 245.844 370.289 239.641 372.286Z" fill="#FFD60A"/>
<path opacity="0.1" d="M191.201 379.387C204.413 379.387 215.123 368.688 215.123 355.49C215.123 342.293 204.413 331.594 191.201 331.594C177.988 331.594 167.278 342.293 167.278 355.49C167.278 368.688 177.988 379.387 191.201 379.387Z" fill="black"/>
<path d="M191.201 379.987C204.413 379.987 215.123 369.289 215.123 356.091C215.123 342.893 204.413 332.194 191.201 332.194C177.988 332.194 167.278 342.893 167.278 356.091C167.278 369.289 177.988 379.987 191.201 379.987Z" fill="#FFB9B9"/>
<path d="M184.343 335.434C181.833 336.112 179.359 337.408 178.134 339.537C177.396 340.821 177.137 342.362 176.069 343.43C174.555 344.947 172.003 344.977 169.956 345.829C167.908 346.681 166.557 349.68 168.563 350.628C166.473 350.736 164.924 352.661 164.666 354.574C164.407 356.488 165.134 358.395 165.837 360.219C168.13 366.121 170.598 372.281 175.654 376.479C183.893 383.329 196.31 383.011 207.377 382.286C208.281 382.316 209.178 382.109 209.977 381.686C211.178 380.894 211.328 379.377 211.526 378.045C212.361 372.359 215.448 367.194 217.465 361.766C219.483 356.338 220.311 349.962 216.913 345.157C211.911 338.032 192.762 333.155 184.343 335.434Z" fill="#B96B6B"/>
<path opacity="0.1" d="M230.97 234.857L230.231 240.525L221.627 241.725C221.627 241.725 220.696 239.734 219.381 236.675L230.832 234.527L230.97 234.857Z" fill="black"/>
<path d="M240.038 360.092L245.046 354.292L244.043 322.304C244.536 319.996 244.871 317.657 245.046 315.304C245.244 311.903 242.542 304.309 242.542 304.309C242.961 302.789 243.53 301.314 244.241 299.907C245.442 297.507 242.548 292.109 242.548 292.109C242.548 292.109 238.236 278.116 240.038 271.116C241.839 264.116 239.599 260.121 239.599 260.121C239.599 260.121 237.84 252.324 238.038 249.127C238.236 245.93 234.033 242.925 234.033 242.925L230.832 235.127L218.024 237.526V264.518C218.024 264.518 218.823 290.31 218.024 295.312C217.226 300.315 219.622 305.107 219.622 305.107C219.622 305.107 218.222 312.503 219.423 315.304C220.624 318.105 223.026 324.901 223.026 324.901C222.58 327.33 222.718 329.829 223.429 332.195C224.629 335.698 223.429 337.695 223.429 337.695L240.038 360.092Z" fill="#FFD60A"/>
<g opacity="0.1">
<path opacity="0.1" d="M276.071 41.0988C275.394 44.6099 275.09 48.1826 275.165 51.7575C275.216 48.785 275.528 45.8226 276.095 42.9043C276.624 40.2411 277.296 37.374 277.152 34.7168C276.931 36.8653 276.57 38.9971 276.071 41.0988Z" fill="black"/>
<path opacity="0.1" d="M212.608 65.8591C211.965 65.2593 211.197 64.8394 210.536 64.2696C208.783 62.7761 208.044 60.6108 207.9 58.2715C207.726 61.2706 208.338 64.1736 210.536 66.0691C211.197 66.6389 211.965 67.0707 212.608 67.6586C213.951 68.9862 214.729 70.7802 214.781 72.667C214.956 70.1478 214.445 67.5266 212.608 65.8591Z" fill="black"/>
<path opacity="0.1" d="M210.693 43.4619C210.798 42.1951 210.688 40.9196 210.368 39.6891C210.02 38.4055 209.395 37.1519 209.167 35.8623C209.167 36.0003 209.119 36.1442 209.101 36.2942C208.927 38.0936 209.9 39.7551 210.368 41.4886C210.541 42.1341 210.649 42.7951 210.693 43.4619Z" fill="black"/>
<path opacity="0.1" d="M273.531 63.2139C271.868 65.0133 269.22 65.4572 266.782 65.4392C264.344 65.4212 261.876 65.0253 259.48 65.5052C257.811 65.8411 256.111 66.5908 254.472 66.105C252.208 65.4512 251.302 62.5061 249.134 61.9363C246.666 61.2885 244.787 64.6654 243.129 66.009C239.076 69.248 233.39 69.218 228.208 69.0081C226.004 68.9061 223.284 69.0801 222.335 71.0714C222.046 71.6753 221.984 72.3631 222.161 73.0088L214.823 74.1605C214.795 74.7639 214.729 75.3649 214.625 75.9599L222.161 74.7603C221.984 74.1146 222.046 73.4268 222.335 72.8229C223.284 70.8315 226.004 70.6576 228.208 70.7595C233.39 70.9995 239.076 71.0295 243.129 67.7605C244.811 66.4169 246.69 63.04 249.134 63.6878C251.302 64.2516 252.208 67.2027 254.472 67.8565C256.111 68.3243 257.811 67.5745 259.48 67.2566C261.882 66.7768 264.344 67.1727 266.782 67.1907C269.22 67.2087 271.868 66.7468 273.531 64.9654C275.194 63.1839 275.435 60.5267 275.333 57.9355C275.261 59.9449 274.846 61.8043 273.531 63.2139Z" fill="black"/>
</g>
<g opacity="0.1">
<path opacity="0.1" d="M217.946 92.0239C217.239 91.6519 216.497 91.3506 215.73 91.1242C214.427 90.5327 213.393 89.4758 212.83 88.1611C213.28 90.2305 214.421 92.1139 216.331 92.9237C217.097 93.15 217.839 93.4514 218.547 93.8234C218.999 94.1425 219.364 94.5692 219.609 95.065C219.369 93.8894 218.931 92.6897 217.946 92.0239Z" fill="black"/>
<path opacity="0.1" d="M228.202 106.616C225.434 107.318 221.819 107.684 220.3 105.339C220.347 105.904 220.511 106.453 220.78 106.952C222.077 109.262 225.248 109.184 227.944 108.614L228.202 106.616Z" fill="black"/>
<path opacity="0.1" d="M239.419 108.261C239.803 110.696 238.218 113.125 236.116 114.403C234.015 115.68 231.451 116.034 228.977 116.202C228.584 116.253 228.184 116.208 227.812 116.07C227.699 116.324 227.663 116.605 227.707 116.879C227.752 117.153 227.875 117.408 228.063 117.612C228.25 117.817 228.493 117.963 228.762 118.032C229.031 118.102 229.314 118.091 229.577 118.002C232.051 117.846 234.597 117.504 236.717 116.202C238.837 114.901 240.422 112.477 240.014 110.036C239.898 109.42 239.698 108.822 239.419 108.261Z" fill="black"/>
<path opacity="0.1" d="M242.086 86.5469C242.452 88.0052 242.48 89.5279 242.168 90.9988C241.856 92.4697 241.212 93.8499 240.284 95.0342C238.867 96.7497 236.711 98.1233 236.405 100.325C236.303 101.337 236.512 102.356 237.006 103.246C236.951 102.874 236.951 102.496 237.006 102.124C237.312 99.9227 239.468 98.5251 240.885 96.8337C243.214 94.0205 243.539 89.8758 242.086 86.5469Z" fill="black"/>
</g>
<g opacity="0.1">
<path opacity="0.1" d="M169.962 346.751C172.003 345.905 174.555 345.875 176.075 344.352C177.143 343.284 177.402 341.742 178.14 340.465C179.341 338.33 181.833 337.04 184.343 336.362C192.75 334.083 211.917 338.953 216.913 346.013C218.377 348.149 219.175 350.67 219.206 353.259C219.399 350.27 218.594 347.303 216.919 344.82C211.923 337.76 192.774 332.889 184.349 335.168C181.839 335.846 179.365 337.136 178.146 339.271C177.408 340.549 177.149 342.09 176.081 343.158C174.561 344.676 172.009 344.706 169.968 345.557C168.413 346.199 167.26 348.094 167.68 349.366C167.848 348.791 168.138 348.259 168.532 347.807C168.927 347.356 169.414 346.995 169.962 346.751Z" fill="black"/>
<path opacity="0.1" d="M164.678 355.466C164.93 353.546 166.48 351.627 168.575 351.519C168.355 351.427 168.158 351.288 167.999 351.11C167.84 350.933 167.723 350.722 167.656 350.493C166.859 350.789 166.158 351.297 165.629 351.962C165.1 352.627 164.763 353.424 164.654 354.266C164.597 354.754 164.597 355.247 164.654 355.736C164.678 355.646 164.678 355.556 164.678 355.466Z" fill="black"/>
</g>
<path d="M291.876 138.101H237.233V209.28H291.876V138.101Z" fill="white"/>
<path opacity="0.1" d="M291.876 138.101H237.233V209.28H291.876V138.101Z" fill="black"/>
<path d="M312.753 142.276L258.901 151.529L270.981 221.679L324.833 212.426L312.753 142.276Z" fill="white"/>
<path d="M284.605 197.178L271.953 199.352L274.791 215.832L287.443 213.658L284.605 197.178Z" fill="#591A92"/>
<path d="M302.113 194.166L289.461 196.34L292.299 212.821L304.951 210.647L302.113 194.166Z" fill="#591A92"/>
<path d="M314.486 170.019L270.115 177.63L272.961 194.185L317.332 186.575L314.486 170.019Z" fill="#591A92"/>
<path d="M310.787 150.26L266.416 157.871L267.051 161.565L311.422 153.954L310.787 150.26Z" fill="#591A92"/>
<path d="M312.242 157.055L267.871 164.666L268.506 168.36L312.877 160.749L312.242 157.055Z" fill="#591A92"/>
<path d="M267.959 118.764C267.959 118.764 242.842 143.956 255.452 150.356C268.061 156.756 276.27 129.062 276.27 129.062L278.263 122.764L267.959 118.764Z" fill="#AE6E79"/>
<path opacity="0.1" d="M265.761 116.538L262.657 123.388C262.657 123.388 277.969 125.535 281.169 130.16L279.272 118.073L277.02 112.915L265.761 116.538Z" fill="black"/>
<path d="M266.362 115.938L263.257 122.788C263.257 122.788 278.569 124.935 281.77 129.56L279.872 117.474L277.621 112.315L266.362 115.938Z" fill="#FFADAD"/>
<path d="M359.051 241.88L358.72 242.108L359.177 242.312L359.669 242.27L359.729 241.928L359.051 241.88Z" fill="#48CAE4"/>
<path opacity="0.1" d="M359.051 241.88L358.72 242.108L359.177 242.312L359.669 242.27L359.729 241.928L359.051 241.88Z" fill="black"/>
<path d="M359.05 241.881L358.714 242.097L358.45 241.773L358.612 241.509L358.762 241.461L359.05 241.881Z" fill="#9C9CA1"/>
<path opacity="0.1" d="M359.05 241.881L358.714 242.097L358.45 241.773L358.612 241.509L358.762 241.461L359.05 241.881Z" fill="black"/>
<path d="M418.155 200.427L393.571 164.96C393.354 164.644 393.075 164.373 392.753 164.164C392.43 163.955 392.07 163.811 391.691 163.742C391.313 163.672 390.925 163.678 390.549 163.758C390.173 163.838 389.817 163.992 389.5 164.21L334.701 201.783C334.06 202.222 333.62 202.898 333.477 203.661C333.334 204.425 333.5 205.214 333.939 205.855L358.456 241.772L418.155 200.427Z" fill="#9C9CA1"/>
<path opacity="0.1" d="M418.155 200.427L393.571 164.96C393.354 164.644 393.075 164.373 392.753 164.164C392.43 163.955 392.07 163.811 391.691 163.742C391.313 163.672 390.925 163.678 390.549 163.758C390.173 163.838 389.817 163.992 389.5 164.21L334.701 201.783C334.06 202.222 333.62 202.898 333.477 203.661C333.334 204.425 333.5 205.214 333.939 205.855L358.456 241.772L418.155 200.427Z" fill="black"/>
<path d="M418.755 200.511L394.172 165.045C393.954 164.728 393.675 164.457 393.352 164.248C393.029 164.039 392.668 163.895 392.289 163.826C391.911 163.756 391.522 163.762 391.145 163.842C390.769 163.923 390.412 164.076 390.095 164.295L335.302 201.891C334.661 202.331 334.221 203.006 334.077 203.769C333.933 204.532 334.097 205.321 334.533 205.964L359.051 241.899L418.755 200.511Z" fill="#9C9CA1"/>
<path d="M439.303 207.524L418.887 200.974L359.176 242.319L379.917 249.097C380.381 249.247 380.874 249.288 381.356 249.215C381.839 249.142 382.298 248.958 382.697 248.677L439.471 208.633C439.578 208.574 439.663 208.483 439.717 208.374C439.77 208.264 439.789 208.141 439.771 208.02C439.753 207.9 439.698 207.788 439.615 207.699C439.531 207.61 439.422 207.549 439.303 207.524Z" fill="#48CAE4"/>
<path opacity="0.1" d="M439.303 207.524L418.887 200.974L359.176 242.319L379.917 249.097C380.381 249.247 380.874 249.288 381.356 249.215C381.839 249.142 382.298 248.958 382.697 248.677L439.471 208.633C439.578 208.574 439.663 208.483 439.717 208.374C439.77 208.264 439.789 208.141 439.771 208.02C439.753 207.9 439.698 207.788 439.615 207.699C439.531 207.61 439.422 207.549 439.303 207.524Z" fill="black"/>
<path d="M439.178 207.109L418.762 200.553L359.051 241.898L379.791 248.664C380.254 248.817 380.748 248.86 381.23 248.788C381.713 248.716 382.173 248.532 382.571 248.25L439.346 208.206C439.448 208.145 439.53 208.055 439.58 207.947C439.631 207.839 439.649 207.719 439.631 207.601C439.613 207.483 439.56 207.374 439.479 207.286C439.398 207.198 439.293 207.137 439.178 207.109Z" fill="#48CAE4"/>
<g opacity="0.1">
<path opacity="0.1" d="M409.111 198.928L407.604 196.769C407.514 196.644 407.378 196.558 407.226 196.53C407.074 196.502 406.917 196.534 406.788 196.619L404.548 198.113C404.422 198.201 404.335 198.335 404.305 198.485C404.275 198.636 404.304 198.792 404.386 198.922L405.773 201.052C405.86 201.179 405.992 201.269 406.143 201.301C406.294 201.333 406.452 201.306 406.583 201.226L408.943 199.744C409.072 199.656 409.161 199.522 409.192 199.37C409.224 199.218 409.195 199.06 409.111 198.928Z" fill="black"/>
<path opacity="0.1" d="M405.088 201.711L403.575 199.558C403.485 199.433 403.349 199.347 403.197 199.319C403.045 199.292 402.888 199.323 402.758 199.408L400.525 200.914C400.398 201.001 400.31 201.134 400.279 201.285C400.247 201.436 400.275 201.593 400.357 201.723L401.744 203.853C401.83 203.981 401.962 204.072 402.113 204.105C402.264 204.139 402.422 204.113 402.554 204.033L404.92 202.551C404.987 202.508 405.044 202.451 405.089 202.385C405.134 202.319 405.165 202.245 405.181 202.167C405.196 202.088 405.196 202.008 405.18 201.93C405.165 201.852 405.133 201.777 405.088 201.711Z" fill="black"/>
<path opacity="0.1" d="M400.861 204.631L399.348 202.478C399.258 202.353 399.122 202.267 398.97 202.239C398.818 202.211 398.661 202.243 398.532 202.328L396.292 203.834C396.164 203.922 396.076 204.057 396.046 204.209C396.016 204.361 396.046 204.519 396.13 204.649L397.517 206.779C397.604 206.906 397.736 206.995 397.887 207.028C398.038 207.06 398.196 207.033 398.327 206.953L400.687 205.471C400.754 205.428 400.813 205.372 400.858 205.306C400.903 205.24 400.935 205.166 400.951 205.088C400.967 205.01 400.968 204.929 400.952 204.851C400.937 204.772 400.906 204.698 400.861 204.631Z" fill="black"/>
<path opacity="0.1" d="M396.58 207.595L395.067 205.435C394.976 205.312 394.842 205.227 394.691 205.199C394.54 205.172 394.385 205.202 394.256 205.285L392.016 206.797C391.89 206.886 391.804 207.019 391.773 207.17C391.743 207.32 391.772 207.477 391.854 207.607L393.241 209.736C393.327 209.863 393.458 209.952 393.608 209.986C393.757 210.019 393.914 209.994 394.046 209.916L396.412 208.428C396.478 208.385 396.534 208.329 396.578 208.263C396.623 208.198 396.654 208.124 396.669 208.046C396.685 207.969 396.685 207.889 396.67 207.812C396.654 207.734 396.624 207.66 396.58 207.595Z" fill="black"/>
<path opacity="0.1" d="M392.305 210.552L390.791 208.399C390.701 208.274 390.565 208.188 390.413 208.16C390.261 208.132 390.104 208.164 389.975 208.249L387.741 209.755C387.614 209.842 387.526 209.975 387.495 210.126C387.464 210.277 387.492 210.434 387.573 210.564L388.96 212.694C389.046 212.822 389.178 212.913 389.329 212.946C389.48 212.98 389.638 212.954 389.771 212.874L392.136 211.386C392.202 211.342 392.259 211.286 392.303 211.221C392.348 211.155 392.378 211.082 392.394 211.004C392.41 210.927 392.41 210.847 392.394 210.769C392.379 210.692 392.349 210.618 392.305 210.552Z" fill="black"/>
<path opacity="0.1" d="M388.215 213.779L386.336 211.104C386.316 211.074 386.29 211.049 386.26 211.029C386.23 211.009 386.197 210.996 386.162 210.989C386.126 210.982 386.09 210.983 386.055 210.99C386.02 210.998 385.987 211.012 385.957 211.032L383.207 212.886C383.177 212.905 383.151 212.93 383.13 212.96C383.11 212.99 383.096 213.023 383.089 213.058C383.081 213.093 383.081 213.13 383.088 213.165C383.095 213.2 383.109 213.234 383.129 213.264L384.852 215.909C384.892 215.969 384.954 216.012 385.024 216.028C385.095 216.044 385.169 216.031 385.231 215.993L388.137 214.193C388.172 214.173 388.202 214.146 388.225 214.114C388.249 214.081 388.265 214.044 388.272 214.004C388.28 213.965 388.278 213.924 388.268 213.886C388.259 213.847 388.24 213.81 388.215 213.779Z" fill="black"/>
<path opacity="0.1" d="M383.94 216.737L382.049 214.062C382.028 214.032 382.002 214.006 381.971 213.986C381.941 213.966 381.907 213.953 381.871 213.946C381.836 213.939 381.799 213.94 381.763 213.947C381.728 213.955 381.694 213.969 381.664 213.99L378.914 215.843C378.855 215.884 378.815 215.947 378.801 216.017C378.788 216.088 378.802 216.161 378.842 216.221L380.565 218.866C380.584 218.898 380.608 218.925 380.638 218.946C380.667 218.968 380.701 218.983 380.736 218.991C380.772 218.999 380.808 218.999 380.844 218.992C380.88 218.985 380.914 218.971 380.944 218.95L383.844 217.151C383.881 217.133 383.914 217.108 383.94 217.076C383.965 217.044 383.984 217.007 383.993 216.967C384.002 216.927 384.002 216.886 383.993 216.846C383.984 216.806 383.966 216.769 383.94 216.737Z" fill="black"/>
<path opacity="0.1" d="M380.151 219.357L378.271 216.706C378.229 216.648 378.166 216.609 378.095 216.597C378.025 216.585 377.952 216.6 377.893 216.64L375.143 218.488C375.083 218.529 375.041 218.592 375.026 218.664C375.012 218.736 375.025 218.81 375.065 218.872L376.788 221.517C376.829 221.576 376.89 221.618 376.961 221.634C377.031 221.649 377.105 221.638 377.166 221.601L380.073 219.801C380.113 219.782 380.147 219.754 380.174 219.719C380.201 219.684 380.219 219.643 380.227 219.6C380.234 219.556 380.231 219.511 380.218 219.469C380.205 219.427 380.182 219.389 380.151 219.357Z" fill="black"/>
<path opacity="0.1" d="M375.912 222.285L374.032 219.61C373.99 219.552 373.927 219.513 373.857 219.5C373.786 219.488 373.713 219.503 373.654 219.544L370.904 221.391C370.873 221.411 370.847 221.437 370.827 221.467C370.806 221.497 370.792 221.531 370.785 221.567C370.778 221.602 370.777 221.639 370.784 221.675C370.792 221.711 370.806 221.745 370.826 221.775L372.549 224.42C372.59 224.48 372.651 224.522 372.722 224.537C372.792 224.553 372.866 224.541 372.927 224.504L375.834 222.705C375.869 222.684 375.899 222.657 375.922 222.623C375.946 222.59 375.962 222.552 375.969 222.513C375.977 222.473 375.975 222.432 375.965 222.392C375.955 222.353 375.937 222.316 375.912 222.285Z" fill="black"/>
<path opacity="0.1" d="M371.804 225.104L369.925 222.428C369.905 222.399 369.879 222.373 369.849 222.353C369.82 222.334 369.786 222.32 369.751 222.313C369.716 222.307 369.679 222.307 369.644 222.314C369.609 222.322 369.576 222.336 369.547 222.357L366.797 224.21C366.766 224.229 366.74 224.255 366.72 224.284C366.699 224.314 366.685 224.347 366.678 224.382C366.671 224.418 366.671 224.454 366.677 224.489C366.684 224.525 366.698 224.558 366.718 224.588L368.442 227.233C368.481 227.294 368.543 227.337 368.614 227.352C368.684 227.368 368.759 227.355 368.82 227.317L371.726 225.518C371.761 225.498 371.791 225.471 371.815 225.438C371.838 225.405 371.854 225.368 371.861 225.329C371.869 225.289 371.868 225.249 371.858 225.21C371.848 225.171 371.83 225.135 371.804 225.104Z" fill="black"/>
<path opacity="0.1" d="M367.697 227.97L365.836 225.289C365.794 225.231 365.731 225.192 365.66 225.18C365.59 225.168 365.517 225.183 365.458 225.223L362.708 227.071C362.677 227.091 362.651 227.117 362.63 227.147C362.61 227.177 362.596 227.211 362.589 227.246C362.581 227.282 362.581 227.319 362.588 227.355C362.595 227.39 362.609 227.424 362.63 227.455L364.353 230.1C364.393 230.159 364.455 230.201 364.525 230.217C364.596 230.232 364.669 230.221 364.731 230.184L367.637 228.384C367.671 228.363 367.7 228.335 367.721 228.301C367.743 228.268 367.757 228.23 367.763 228.191C367.768 228.152 367.765 228.112 367.754 228.074C367.743 228.036 367.724 228 367.697 227.97Z" fill="black"/>
<path opacity="0.1" d="M363.59 230.808L361.711 228.133C361.691 228.103 361.665 228.077 361.635 228.058C361.605 228.038 361.572 228.024 361.537 228.017C361.501 228.011 361.465 228.011 361.43 228.019C361.395 228.026 361.362 228.04 361.332 228.061L358.582 229.902C358.552 229.921 358.526 229.947 358.505 229.976C358.485 230.006 358.471 230.039 358.464 230.075C358.456 230.11 358.456 230.146 358.463 230.181C358.47 230.217 358.484 230.25 358.504 230.28L360.227 232.925C360.267 232.986 360.329 233.029 360.399 233.044C360.47 233.06 360.544 233.047 360.606 233.009L363.512 231.21C363.545 231.19 363.574 231.163 363.596 231.131C363.618 231.1 363.633 231.064 363.64 231.026C363.648 230.988 363.647 230.949 363.638 230.912C363.63 230.874 363.613 230.839 363.59 230.808Z" fill="black"/>
<path opacity="0.1" d="M406.41 195.023L404.896 192.864C404.806 192.739 404.67 192.653 404.518 192.625C404.366 192.597 404.209 192.629 404.08 192.714L401.864 194.225C401.737 194.313 401.649 194.446 401.618 194.597C401.587 194.747 401.615 194.904 401.696 195.035L403.083 197.164C403.17 197.292 403.303 197.381 403.453 197.414C403.604 197.446 403.762 197.419 403.894 197.338L406.259 195.857C406.39 195.766 406.479 195.627 406.507 195.471C406.535 195.315 406.5 195.154 406.41 195.023Z" fill="black"/>
<path opacity="0.1" d="M400.495 186.488L398.982 184.316C398.891 184.193 398.757 184.108 398.606 184.08C398.456 184.052 398.3 184.083 398.171 184.166L395.931 185.672C395.805 185.759 395.717 185.892 395.685 186.043C395.654 186.194 395.682 186.351 395.763 186.482L397.15 188.611C397.236 188.739 397.369 188.83 397.52 188.863C397.671 188.897 397.829 188.871 397.961 188.791L400.327 187.309C400.457 187.221 400.547 187.086 400.579 186.933C400.61 186.779 400.58 186.619 400.495 186.488Z" fill="black"/>
<path opacity="0.1" d="M402.38 197.806L400.867 195.653C400.777 195.53 400.642 195.445 400.492 195.417C400.341 195.389 400.185 195.42 400.057 195.503L397.817 197.009C397.691 197.097 397.604 197.231 397.574 197.381C397.544 197.532 397.573 197.688 397.655 197.818L399.036 199.948C399.122 200.076 399.254 200.167 399.405 200.2C399.556 200.234 399.714 200.208 399.846 200.128L402.212 198.646C402.279 198.603 402.337 198.546 402.381 198.48C402.426 198.414 402.457 198.34 402.473 198.262C402.488 198.183 402.488 198.103 402.473 198.025C402.457 197.947 402.425 197.872 402.38 197.806Z" fill="black"/>
<path opacity="0.1" d="M398.153 200.727L396.64 198.574C396.549 198.449 396.414 198.363 396.262 198.335C396.109 198.307 395.952 198.339 395.823 198.424L393.589 199.911C393.461 199.999 393.372 200.133 393.34 200.285C393.309 200.437 393.338 200.596 393.421 200.727L394.808 202.856C394.895 202.984 395.028 203.073 395.179 203.106C395.33 203.138 395.487 203.111 395.619 203.03L397.985 201.549C398.115 201.461 398.205 201.326 398.237 201.172C398.268 201.019 398.238 200.859 398.153 200.727Z" fill="black"/>
<path opacity="0.1" d="M393.871 203.69L392.364 201.531C392.274 201.406 392.138 201.32 391.986 201.292C391.834 201.264 391.677 201.296 391.547 201.381L389.308 202.91C389.182 202.999 389.095 203.132 389.065 203.283C389.035 203.434 389.064 203.59 389.146 203.72L390.533 205.849C390.619 205.977 390.752 206.066 390.903 206.099C391.054 206.131 391.212 206.104 391.343 206.023L393.703 204.542C393.772 204.498 393.831 204.441 393.877 204.374C393.922 204.307 393.954 204.232 393.97 204.152C393.986 204.072 393.985 203.99 393.968 203.911C393.951 203.832 393.918 203.756 393.871 203.69Z" fill="black"/>
<path opacity="0.1" d="M396.562 189.408L395.049 187.255C394.958 187.131 394.824 187.047 394.673 187.019C394.523 186.991 394.367 187.022 394.238 187.105L391.998 188.61C391.872 188.698 391.784 188.831 391.752 188.982C391.721 189.132 391.749 189.289 391.83 189.42L393.217 191.549C393.303 191.678 393.435 191.768 393.586 191.802C393.737 191.835 393.896 191.809 394.028 191.729L396.394 190.248C396.461 190.204 396.518 190.148 396.563 190.082C396.608 190.016 396.639 189.941 396.654 189.863C396.67 189.785 396.67 189.704 396.654 189.626C396.638 189.548 396.607 189.474 396.562 189.408Z" fill="black"/>
<path opacity="0.1" d="M392.334 192.336L390.821 190.176C390.73 190.051 390.595 189.966 390.443 189.938C390.291 189.91 390.134 189.941 390.004 190.026L387.771 191.514C387.644 191.602 387.556 191.734 387.525 191.885C387.493 192.036 387.521 192.193 387.603 192.324L388.99 194.453C389.077 194.581 389.209 194.67 389.36 194.702C389.511 194.735 389.669 194.708 389.8 194.627L392.166 193.145C392.293 193.058 392.381 192.925 392.412 192.774C392.443 192.623 392.416 192.466 392.334 192.336Z" fill="black"/>
<path opacity="0.1" d="M388.053 195.293L386.54 193.14C386.45 193.015 386.316 192.929 386.165 192.9C386.015 192.871 385.859 192.901 385.729 192.984L383.489 194.513C383.364 194.602 383.277 194.735 383.247 194.886C383.216 195.036 383.245 195.193 383.327 195.323L384.714 197.452C384.8 197.581 384.932 197.671 385.083 197.705C385.234 197.738 385.393 197.712 385.525 197.632L387.885 196.145C387.953 196.101 388.012 196.044 388.058 195.977C388.104 195.91 388.136 195.834 388.151 195.755C388.167 195.675 388.166 195.593 388.149 195.514C388.133 195.434 388.1 195.359 388.053 195.293Z" fill="black"/>
<path opacity="0.1" d="M389.596 206.647L388.083 204.494C387.993 204.37 387.859 204.284 387.709 204.255C387.558 204.226 387.402 204.256 387.272 204.338L385.05 205.85C384.925 205.938 384.838 206.072 384.808 206.222C384.777 206.373 384.806 206.529 384.888 206.659L386.251 208.789C386.337 208.916 386.468 209.005 386.618 209.039C386.767 209.072 386.924 209.047 387.056 208.969L389.422 207.481C389.488 207.438 389.546 207.382 389.59 207.317C389.635 207.252 389.667 207.178 389.683 207.101C389.699 207.023 389.7 206.943 389.685 206.865C389.67 206.788 389.64 206.714 389.596 206.647Z" fill="black"/>
<path opacity="0.1" d="M385.321 209.605L383.808 207.452C383.717 207.326 383.582 207.241 383.43 207.213C383.278 207.185 383.121 207.217 382.991 207.302L380.758 208.807C380.631 208.895 380.543 209.028 380.512 209.179C380.48 209.329 380.508 209.486 380.589 209.617L381.977 211.746C382.062 211.875 382.195 211.965 382.346 211.999C382.497 212.032 382.655 212.006 382.787 211.926L385.153 210.445C385.22 210.401 385.277 210.345 385.322 210.279C385.367 210.213 385.398 210.138 385.414 210.06C385.429 209.982 385.429 209.901 385.413 209.823C385.397 209.745 385.366 209.671 385.321 209.605Z" fill="black"/>
<path opacity="0.1" d="M381.232 212.831L379.353 210.156C379.333 210.126 379.307 210.101 379.277 210.081C379.247 210.061 379.214 210.048 379.179 210.041C379.143 210.034 379.107 210.035 379.072 210.042C379.037 210.049 379.004 210.064 378.974 210.084L376.224 211.937C376.194 211.957 376.168 211.982 376.148 212.012C376.127 212.041 376.113 212.075 376.106 212.11C376.098 212.145 376.098 212.181 376.105 212.217C376.112 212.252 376.126 212.286 376.146 212.315L377.87 214.961C377.889 214.991 377.913 215.018 377.943 215.039C377.972 215.06 378.006 215.075 378.041 215.082C378.076 215.09 378.113 215.091 378.148 215.084C378.184 215.078 378.218 215.064 378.248 215.045L381.154 213.245C381.189 213.225 381.219 213.198 381.243 213.166C381.266 213.133 381.282 213.096 381.289 213.056C381.297 213.017 381.295 212.976 381.286 212.937C381.276 212.899 381.258 212.862 381.232 212.831Z" fill="black"/>
<path opacity="0.1" d="M377.443 215.452L375.563 212.771C375.521 212.713 375.458 212.674 375.387 212.661C375.317 212.649 375.244 212.665 375.185 212.705L372.441 214.552C372.38 214.594 372.339 214.657 372.324 214.728C372.309 214.8 372.323 214.874 372.363 214.936L374.086 217.581C374.126 217.641 374.188 217.683 374.258 217.698C374.329 217.714 374.402 217.702 374.464 217.665L377.371 215.866C377.407 215.847 377.438 215.82 377.462 215.787C377.486 215.755 377.502 215.717 377.509 215.677C377.516 215.637 377.514 215.595 377.502 215.556C377.491 215.517 377.47 215.482 377.443 215.452Z" fill="black"/>
<path opacity="0.1" d="M373.203 218.379L371.324 215.704C371.282 215.646 371.219 215.607 371.148 215.595C371.078 215.583 371.005 215.598 370.946 215.638L368.195 217.486C368.165 217.505 368.139 217.53 368.119 217.56C368.098 217.59 368.084 217.623 368.077 217.658C368.07 217.693 368.069 217.73 368.076 217.765C368.083 217.8 368.097 217.834 368.117 217.864L369.841 220.515C369.881 220.574 369.943 220.616 370.013 220.632C370.084 220.647 370.157 220.636 370.219 220.599L373.125 218.799C373.16 218.779 373.191 218.751 373.214 218.718C373.237 218.685 373.253 218.647 373.261 218.607C373.268 218.567 373.267 218.526 373.257 218.487C373.247 218.448 373.229 218.411 373.203 218.379Z" fill="black"/>
<path opacity="0.1" d="M369.097 221.224L367.217 218.549C367.197 218.519 367.171 218.493 367.142 218.474C367.112 218.454 367.078 218.44 367.043 218.433C367.008 218.427 366.972 218.427 366.936 218.435C366.901 218.442 366.868 218.456 366.839 218.477L364.089 220.306C364.058 220.325 364.032 220.351 364.012 220.38C363.991 220.41 363.977 220.443 363.97 220.479C363.963 220.514 363.962 220.55 363.969 220.585C363.976 220.621 363.99 220.654 364.01 220.684L365.734 223.329C365.773 223.39 365.835 223.433 365.906 223.448C365.977 223.464 366.051 223.451 366.112 223.413L369.018 221.614C369.05 221.594 369.077 221.568 369.098 221.537C369.119 221.506 369.133 221.472 369.141 221.435C369.148 221.399 369.148 221.361 369.14 221.325C369.133 221.289 369.118 221.254 369.097 221.224Z" fill="black"/>
<path opacity="0.1" d="M395.337 196.666L393.823 194.513C393.733 194.389 393.599 194.305 393.448 194.277C393.297 194.249 393.141 194.279 393.013 194.363L390.773 195.874C390.647 195.963 390.56 196.096 390.53 196.247C390.5 196.397 390.529 196.554 390.611 196.684L391.998 198.813C392.085 198.939 392.216 199.027 392.366 199.06C392.515 199.092 392.671 199.066 392.803 198.987L395.168 197.506C395.235 197.462 395.293 197.406 395.337 197.339C395.382 197.273 395.413 197.199 395.429 197.121C395.445 197.043 395.445 196.962 395.429 196.884C395.413 196.806 395.381 196.732 395.337 196.666Z" fill="black"/>
<path opacity="0.1" d="M391.056 199.63L389.542 197.47C389.452 197.345 389.316 197.26 389.164 197.232C389.012 197.204 388.855 197.235 388.726 197.32L386.492 198.832C386.365 198.919 386.277 199.052 386.246 199.203C386.215 199.354 386.243 199.511 386.324 199.642L387.711 201.771C387.797 201.899 387.929 201.99 388.08 202.023C388.231 202.057 388.389 202.031 388.522 201.951L390.888 200.463C390.954 200.42 391.01 200.364 391.054 200.298C391.099 200.232 391.129 200.159 391.145 200.081C391.161 200.004 391.161 199.924 391.146 199.847C391.13 199.769 391.1 199.695 391.056 199.63Z" fill="black"/>
<path opacity="0.1" d="M386.786 202.587L385.273 200.434C385.183 200.309 385.047 200.223 384.895 200.195C384.743 200.167 384.586 200.199 384.457 200.284L382.217 201.79C382.091 201.878 382.004 202.012 381.974 202.162C381.944 202.313 381.973 202.469 382.055 202.599L383.442 204.729C383.528 204.857 383.66 204.948 383.811 204.981C383.962 205.015 384.12 204.989 384.252 204.909L386.612 203.421C386.679 203.378 386.736 203.322 386.781 203.257C386.825 203.192 386.857 203.118 386.873 203.041C386.889 202.963 386.89 202.883 386.875 202.805C386.86 202.728 386.83 202.654 386.786 202.587Z" fill="black"/>
<path opacity="0.1" d="M382.505 205.543L380.991 203.389C380.901 203.266 380.767 203.181 380.616 203.154C380.465 203.126 380.309 203.156 380.181 203.24L377.941 204.745C377.815 204.834 377.728 204.967 377.698 205.118C377.668 205.268 377.697 205.425 377.779 205.555L379.166 207.708C379.252 207.835 379.383 207.924 379.532 207.958C379.682 207.991 379.839 207.966 379.971 207.888L382.336 206.407C382.407 206.363 382.467 206.305 382.514 206.237C382.561 206.169 382.593 206.092 382.609 206.011C382.625 205.93 382.624 205.847 382.606 205.766C382.588 205.686 382.553 205.61 382.505 205.543Z" fill="black"/>
<path opacity="0.1" d="M378.446 208.771L376.566 206.095C376.546 206.066 376.521 206.04 376.491 206.02C376.461 206.001 376.427 205.987 376.392 205.98C376.357 205.974 376.321 205.974 376.286 205.981C376.251 205.989 376.217 206.003 376.188 206.023L373.438 207.877C373.378 207.917 373.336 207.979 373.322 208.05C373.307 208.121 373.321 208.194 373.36 208.255L375.083 210.906C375.103 210.936 375.128 210.962 375.157 210.983C375.187 211.003 375.221 211.017 375.256 211.024C375.291 211.032 375.327 211.032 375.363 211.025C375.398 211.018 375.432 211.004 375.461 210.984L378.368 209.184C378.403 209.165 378.433 209.138 378.456 209.105C378.479 209.072 378.495 209.035 378.503 208.996C378.51 208.956 378.509 208.916 378.499 208.877C378.489 208.838 378.471 208.802 378.446 208.771Z" fill="black"/>
<path opacity="0.1" d="M374.633 211.392L372.753 208.711C372.71 208.652 372.646 208.613 372.574 208.601C372.503 208.588 372.429 208.604 372.369 208.645L369.625 210.492C369.564 210.534 369.523 210.597 369.508 210.668C369.494 210.74 369.507 210.814 369.547 210.876L371.27 213.521C371.309 213.582 371.371 213.625 371.442 213.641C371.513 213.656 371.587 213.644 371.648 213.605L374.555 211.806C374.59 211.786 374.62 211.759 374.643 211.726C374.666 211.694 374.682 211.656 374.69 211.617C374.697 211.577 374.696 211.537 374.686 211.498C374.676 211.459 374.658 211.423 374.633 211.392Z" fill="black"/>
<path opacity="0.1" d="M370.393 214.307L368.514 211.626C368.471 211.567 368.407 211.528 368.335 211.516C368.263 211.504 368.19 211.519 368.13 211.56L365.38 213.407C365.32 213.45 365.28 213.513 365.265 213.584C365.251 213.655 365.264 213.729 365.301 213.791L367.031 216.436C367.07 216.497 367.132 216.54 367.203 216.556C367.273 216.571 367.348 216.559 367.409 216.52L370.309 214.721C370.346 214.702 370.377 214.676 370.402 214.644C370.426 214.611 370.443 214.574 370.451 214.534C370.459 214.494 370.458 214.453 370.448 214.414C370.438 214.375 370.42 214.338 370.393 214.307Z" fill="black"/>
<path opacity="0.1" d="M366.286 217.163L364.406 214.488C364.386 214.458 364.36 214.432 364.329 214.412C364.299 214.392 364.265 214.379 364.229 214.372C364.194 214.365 364.157 214.366 364.121 214.373C364.086 214.381 364.052 214.395 364.022 214.416L361.272 216.269C361.213 216.31 361.173 216.373 361.159 216.443C361.146 216.514 361.16 216.587 361.2 216.647L362.923 219.292C362.942 219.323 362.966 219.351 362.996 219.372C363.025 219.393 363.059 219.409 363.094 219.416C363.13 219.424 363.166 219.425 363.202 219.418C363.238 219.411 363.272 219.397 363.302 219.376L366.202 217.577C366.238 217.558 366.27 217.532 366.294 217.499C366.319 217.467 366.336 217.43 366.344 217.39C366.352 217.35 366.351 217.309 366.341 217.27C366.331 217.23 366.312 217.194 366.286 217.163Z" fill="black"/>
<path opacity="0.1" d="M364.99 224.06L363.11 221.385C363.068 221.327 363.005 221.288 362.934 221.276C362.864 221.263 362.791 221.279 362.732 221.319L359.982 223.166C359.951 223.186 359.925 223.211 359.905 223.241C359.885 223.27 359.87 223.304 359.863 223.339C359.856 223.374 359.856 223.41 359.863 223.446C359.869 223.481 359.883 223.515 359.904 223.544L361.627 226.195C361.667 226.255 361.729 226.297 361.799 226.313C361.87 226.328 361.943 226.316 362.005 226.279L364.911 224.48C364.947 224.46 364.977 224.432 365 224.399C365.023 224.366 365.039 224.328 365.047 224.288C365.054 224.248 365.053 224.207 365.043 224.168C365.033 224.128 365.015 224.092 364.99 224.06Z" fill="black"/>
<path opacity="0.1" d="M360.882 226.903L359.002 224.228C358.982 224.199 358.957 224.173 358.927 224.153C358.897 224.133 358.863 224.12 358.828 224.113C358.793 224.106 358.757 224.107 358.722 224.114C358.687 224.122 358.653 224.136 358.624 224.156L355.874 226.01C355.843 226.029 355.817 226.054 355.797 226.084C355.777 226.114 355.762 226.147 355.755 226.182C355.748 226.217 355.748 226.254 355.755 226.289C355.762 226.324 355.776 226.358 355.796 226.388L357.519 229.033C357.558 229.094 357.62 229.136 357.691 229.152C357.762 229.168 357.836 229.155 357.897 229.117L360.804 227.317C360.839 227.298 360.869 227.27 360.892 227.238C360.915 227.205 360.931 227.168 360.939 227.128C360.946 227.089 360.945 227.049 360.935 227.01C360.925 226.971 360.907 226.935 360.882 226.903Z" fill="black"/>
<path opacity="0.1" d="M367.331 209.904L365.53 207.384C365.473 207.306 365.388 207.253 365.293 207.236C365.198 207.219 365.1 207.24 365.019 207.294L362.425 209.04C362.385 209.066 362.35 209.101 362.323 209.141C362.296 209.181 362.277 209.226 362.268 209.274C362.258 209.321 362.258 209.37 362.268 209.417C362.277 209.465 362.296 209.51 362.323 209.55L363.945 212.039C363.97 212.08 364.003 212.116 364.042 212.144C364.081 212.172 364.126 212.192 364.173 212.202C364.22 212.213 364.268 212.214 364.316 212.206C364.363 212.197 364.409 212.179 364.449 212.153L367.193 210.431C367.238 210.407 367.278 210.374 367.31 210.334C367.342 210.294 367.365 210.247 367.378 210.198C367.391 210.148 367.393 210.096 367.385 210.046C367.377 209.995 367.359 209.947 367.331 209.904Z" fill="black"/>
<path opacity="0.1" d="M363.224 212.748L361.453 210.229C361.426 210.189 361.391 210.155 361.35 210.128C361.31 210.102 361.265 210.084 361.217 210.075C361.17 210.066 361.121 210.066 361.074 210.076C361.027 210.086 360.982 210.105 360.942 210.133L358.348 211.908C358.308 211.934 358.273 211.968 358.246 212.008C358.22 212.047 358.201 212.092 358.191 212.139C358.182 212.186 358.182 212.234 358.191 212.281C358.201 212.328 358.219 212.372 358.246 212.412L359.867 214.907C359.92 214.988 360.003 215.045 360.097 215.066C360.191 215.087 360.289 215.071 360.372 215.021L363.116 213.3C363.162 213.273 363.202 213.237 363.234 213.194C363.265 213.15 363.286 213.101 363.296 213.048C363.307 212.996 363.305 212.942 363.293 212.89C363.281 212.838 363.257 212.79 363.224 212.748Z" fill="black"/>
<path opacity="0.1" d="M359.116 215.589L357.345 213.064C357.288 212.986 357.203 212.933 357.108 212.916C357.012 212.899 356.914 212.92 356.834 212.974L354.24 214.72C354.2 214.746 354.165 214.781 354.138 214.821C354.111 214.861 354.092 214.906 354.083 214.953C354.073 215.001 354.073 215.049 354.083 215.097C354.092 215.144 354.111 215.189 354.138 215.229L355.759 217.719C355.785 217.76 355.818 217.795 355.857 217.824C355.896 217.852 355.94 217.872 355.988 217.882C356.035 217.893 356.083 217.894 356.131 217.885C356.178 217.877 356.223 217.859 356.264 217.833L359.008 216.111C359.051 216.085 359.087 216.05 359.116 216.01C359.145 215.969 359.165 215.922 359.175 215.874C359.185 215.825 359.185 215.774 359.175 215.725C359.165 215.676 359.145 215.63 359.116 215.589Z" fill="black"/>
<path opacity="0.1" d="M355.063 218.506L353.184 215.824C353.142 215.767 353.079 215.727 353.008 215.715C352.937 215.703 352.865 215.718 352.806 215.758L350.055 217.606C349.995 217.647 349.953 217.71 349.939 217.782C349.924 217.854 349.938 217.928 349.977 217.99L351.701 220.635C351.741 220.695 351.803 220.736 351.873 220.752C351.943 220.768 352.017 220.756 352.079 220.719L354.985 218.92C355.022 218.901 355.054 218.875 355.078 218.842C355.103 218.81 355.12 218.772 355.127 218.732C355.135 218.692 355.133 218.651 355.122 218.611C355.111 218.572 355.091 218.536 355.063 218.506Z" fill="black"/>
<path opacity="0.1" d="M403.665 190.824L402.038 188.515C401.946 188.391 401.811 188.306 401.658 188.28C401.506 188.253 401.35 188.286 401.221 188.371L394.868 192.816C394.745 192.905 394.661 193.038 394.632 193.187C394.603 193.336 394.631 193.491 394.712 193.619L396.243 195.983C396.287 196.048 396.344 196.104 396.41 196.148C396.476 196.191 396.55 196.222 396.627 196.237C396.705 196.252 396.784 196.251 396.862 196.236C396.939 196.22 397.013 196.189 397.078 196.145L403.527 191.64C403.651 191.548 403.734 191.412 403.759 191.26C403.785 191.108 403.751 190.952 403.665 190.824Z" fill="black"/>
<path opacity="0.1" d="M362.166 219.915L360.173 217.102C360.152 217.072 360.126 217.046 360.096 217.027C360.065 217.007 360.031 216.993 359.995 216.987C359.959 216.981 359.922 216.982 359.887 216.991C359.851 216.999 359.818 217.015 359.789 217.036L352.931 221.835C352.873 221.875 352.832 221.936 352.819 222.006C352.805 222.075 352.82 222.147 352.859 222.207L354.733 225.104C354.753 225.135 354.779 225.162 354.809 225.183C354.84 225.204 354.875 225.218 354.911 225.226C354.948 225.233 354.985 225.233 355.022 225.225C355.058 225.218 355.092 225.203 355.123 225.182L362.094 220.305C362.155 220.263 362.197 220.198 362.211 220.125C362.224 220.052 362.208 219.977 362.166 219.915Z" fill="black"/>
<path opacity="0.1" d="M383.982 198.4L382.145 195.713C382.103 195.654 382.041 195.614 381.97 195.601C381.899 195.587 381.826 195.602 381.766 195.641L366.538 205.91C366.478 205.95 366.437 206.013 366.422 206.083C366.408 206.154 366.421 206.227 366.46 206.288L368.34 209.167C368.36 209.198 368.386 209.225 368.417 209.246C368.447 209.267 368.482 209.282 368.518 209.289C368.555 209.296 368.592 209.296 368.629 209.289C368.665 209.281 368.7 209.266 368.73 209.245L383.91 198.784C383.94 198.764 383.966 198.738 383.986 198.707C384.005 198.677 384.019 198.643 384.026 198.607C384.032 198.572 384.032 198.535 384.025 198.5C384.017 198.464 384.003 198.43 383.982 198.4Z" fill="black"/>
</g>
<path d="M409.514 199L408.001 196.84C407.91 196.715 407.775 196.63 407.623 196.602C407.471 196.574 407.313 196.606 407.184 196.69L404.951 198.202C404.824 198.29 404.736 198.423 404.704 198.573C404.673 198.724 404.701 198.881 404.782 199.012L406.169 201.141C406.255 201.27 406.388 201.36 406.539 201.394C406.69 201.427 406.848 201.401 406.98 201.321L409.346 199.833C409.412 199.79 409.469 199.734 409.513 199.668C409.557 199.603 409.588 199.529 409.604 199.451C409.619 199.374 409.619 199.294 409.604 199.217C409.589 199.139 409.558 199.065 409.514 199Z" fill="#48CAE4"/>
<path d="M405.467 201.783L403.953 199.63C403.863 199.506 403.729 199.422 403.578 199.394C403.427 199.366 403.272 199.397 403.143 199.48L400.903 200.985C400.776 201.073 400.688 201.206 400.657 201.357C400.626 201.507 400.654 201.664 400.735 201.795L402.122 203.924C402.208 204.053 402.34 204.143 402.491 204.177C402.642 204.21 402.8 204.184 402.933 204.104L405.298 202.623C405.365 202.579 405.423 202.523 405.468 202.457C405.512 202.391 405.543 202.316 405.559 202.238C405.575 202.16 405.575 202.079 405.559 202.001C405.543 201.923 405.512 201.849 405.467 201.783Z" fill="#48CAE4"/>
<path d="M401.263 204.71L399.75 202.557C399.659 202.432 399.524 202.346 399.372 202.318C399.22 202.291 399.063 202.322 398.933 202.407L396.7 203.919C396.573 204.006 396.485 204.139 396.453 204.29C396.422 204.441 396.45 204.598 396.531 204.728L397.918 206.858C398.005 206.985 398.138 207.075 398.289 207.107C398.44 207.139 398.598 207.112 398.729 207.032L401.095 205.55C401.162 205.507 401.219 205.45 401.264 205.384C401.309 205.318 401.34 205.244 401.355 205.166C401.371 205.087 401.371 205.007 401.355 204.929C401.339 204.851 401.308 204.776 401.263 204.71Z" fill="#48CAE4"/>
<path d="M396.976 207.667L395.463 205.508C395.372 205.384 395.238 205.3 395.087 205.272C394.937 205.244 394.781 205.275 394.652 205.358L392.412 206.869C392.347 206.914 392.29 206.971 392.247 207.037C392.203 207.104 392.173 207.178 392.159 207.256C392.144 207.335 392.145 207.415 392.162 207.493C392.179 207.57 392.211 207.644 392.256 207.709L393.643 209.838C393.729 209.967 393.862 210.057 394.013 210.091C394.164 210.124 394.322 210.098 394.454 210.018L396.814 208.531C396.884 208.487 396.944 208.429 396.99 208.361C397.036 208.292 397.068 208.215 397.083 208.134C397.099 208.053 397.097 207.97 397.078 207.889C397.06 207.809 397.025 207.733 396.976 207.667Z" fill="#48CAE4"/>
<path d="M392.701 210.625L391.188 208.472C391.097 208.348 390.963 208.263 390.812 208.236C390.661 208.208 390.506 208.238 390.377 208.322L388.137 209.827C388.012 209.916 387.925 210.049 387.894 210.2C387.864 210.35 387.893 210.507 387.975 210.637L389.356 212.766C389.442 212.895 389.574 212.985 389.725 213.019C389.876 213.052 390.035 213.026 390.167 212.946L392.533 211.459C392.599 211.415 392.655 211.359 392.7 211.293C392.744 211.228 392.775 211.154 392.79 211.077C392.806 210.999 392.806 210.919 392.791 210.842C392.775 210.764 392.745 210.691 392.701 210.625Z" fill="#48CAE4"/>
<path d="M388.612 213.851L386.732 211.176C386.712 211.146 386.687 211.12 386.657 211.101C386.627 211.081 386.593 211.067 386.558 211.06C386.523 211.054 386.487 211.054 386.452 211.062C386.417 211.069 386.383 211.083 386.354 211.104L383.604 212.957C383.573 212.976 383.547 213.002 383.527 213.031C383.507 213.061 383.492 213.094 383.485 213.13C383.478 213.165 383.478 213.201 383.485 213.236C383.492 213.272 383.506 213.305 383.526 213.335L385.249 215.98C385.288 216.041 385.35 216.084 385.421 216.099C385.492 216.115 385.566 216.102 385.627 216.064L388.534 214.265C388.568 214.245 388.599 214.218 388.622 214.185C388.645 214.152 388.661 214.115 388.669 214.076C388.676 214.036 388.675 213.996 388.665 213.957C388.655 213.918 388.637 213.882 388.612 213.851Z" fill="#48CAE4"/>
<path d="M384.336 216.808L382.456 214.133C382.436 214.103 382.41 214.077 382.379 214.058C382.349 214.038 382.315 214.024 382.279 214.017C382.243 214.011 382.207 214.011 382.171 214.019C382.136 214.026 382.102 214.041 382.072 214.061L379.328 215.914C379.297 215.934 379.271 215.959 379.251 215.989C379.231 216.018 379.216 216.052 379.209 216.087C379.202 216.122 379.202 216.158 379.209 216.194C379.216 216.229 379.23 216.263 379.25 216.292L380.973 218.943C380.993 218.974 381.018 219 381.047 219.02C381.077 219.04 381.111 219.055 381.146 219.062C381.181 219.069 381.217 219.069 381.253 219.062C381.288 219.055 381.322 219.042 381.351 219.021L384.258 217.222C384.292 217.202 384.321 217.174 384.344 217.141C384.367 217.109 384.382 217.072 384.39 217.033C384.397 216.993 384.396 216.953 384.387 216.915C384.377 216.876 384.36 216.84 384.336 216.808Z" fill="#48CAE4"/>
<path d="M380.547 219.429L378.668 216.748C378.626 216.69 378.563 216.651 378.492 216.639C378.421 216.627 378.349 216.642 378.289 216.682L375.539 218.506C375.479 218.547 375.437 218.61 375.423 218.682C375.408 218.754 375.422 218.828 375.461 218.89L377.185 221.535C377.225 221.594 377.287 221.636 377.357 221.652C377.427 221.667 377.501 221.656 377.563 221.619L380.469 219.819C380.5 219.799 380.527 219.773 380.548 219.743C380.569 219.712 380.584 219.677 380.591 219.641C380.599 219.605 380.598 219.567 380.591 219.531C380.583 219.494 380.568 219.46 380.547 219.429Z" fill="#48CAE4"/>
<path d="M376.308 222.362L374.428 219.705C374.386 219.647 374.323 219.608 374.253 219.596C374.182 219.584 374.109 219.599 374.05 219.639L371.3 221.487C371.269 221.507 371.243 221.533 371.223 221.563C371.202 221.593 371.188 221.627 371.181 221.662C371.174 221.698 371.173 221.735 371.18 221.771C371.188 221.806 371.202 221.84 371.222 221.871L372.945 224.516C372.986 224.575 373.047 224.617 373.118 224.633C373.188 224.649 373.262 224.637 373.323 224.6L376.23 222.8C376.269 222.781 376.303 222.753 376.329 222.719C376.355 222.684 376.372 222.644 376.38 222.601C376.387 222.559 376.385 222.515 376.372 222.473C376.36 222.432 376.338 222.394 376.308 222.362Z" fill="#48CAE4"/>
<path d="M372.201 225.2L370.321 222.525C370.302 222.495 370.276 222.47 370.246 222.45C370.216 222.43 370.183 222.417 370.147 222.41C370.112 222.403 370.076 222.404 370.041 222.411C370.006 222.419 369.973 222.433 369.943 222.453L367.193 224.307C367.163 224.326 367.137 224.351 367.116 224.381C367.096 224.411 367.082 224.444 367.074 224.479C367.067 224.514 367.067 224.551 367.074 224.586C367.081 224.621 367.095 224.655 367.115 224.684L368.838 227.33C368.857 227.36 368.882 227.387 368.912 227.408C368.941 227.429 368.974 227.444 369.01 227.452C369.045 227.459 369.081 227.46 369.117 227.454C369.153 227.447 369.186 227.433 369.217 227.414L372.123 225.614C372.158 225.594 372.188 225.567 372.211 225.535C372.235 225.502 372.251 225.465 372.258 225.425C372.265 225.386 372.264 225.345 372.254 225.307C372.244 225.268 372.226 225.231 372.201 225.2Z" fill="#48CAE4"/>
<path d="M368.093 228.044L366.214 225.363C366.172 225.305 366.108 225.265 366.038 225.253C365.967 225.241 365.895 225.256 365.835 225.297L363.085 227.144C363.025 227.185 362.983 227.249 362.969 227.32C362.954 227.392 362.968 227.466 363.007 227.528L364.731 230.173C364.771 230.233 364.833 230.275 364.903 230.29C364.973 230.306 365.047 230.294 365.109 230.257L368.015 228.458C368.05 228.438 368.08 228.411 368.104 228.378C368.127 228.345 368.143 228.308 368.15 228.269C368.158 228.229 368.156 228.189 368.147 228.15C368.137 228.111 368.119 228.075 368.093 228.044Z" fill="#48CAE4"/>
<path d="M363.986 230.88L362.107 228.205C362.087 228.175 362.061 228.15 362.032 228.13C362.002 228.11 361.968 228.096 361.933 228.09C361.898 228.083 361.862 228.083 361.827 228.091C361.791 228.098 361.758 228.112 361.729 228.133L358.979 229.986C358.948 230.006 358.922 230.031 358.902 230.061C358.882 230.09 358.867 230.124 358.86 230.159C358.853 230.194 358.853 230.23 358.86 230.266C358.867 230.301 358.881 230.334 358.901 230.364L360.624 233.009C360.643 233.04 360.668 233.067 360.697 233.088C360.727 233.109 360.76 233.123 360.795 233.131C360.831 233.139 360.867 233.14 360.903 233.133C360.938 233.127 360.972 233.113 361.002 233.093L363.908 231.294C363.943 231.274 363.973 231.247 363.997 231.214C364.02 231.182 364.036 231.144 364.044 231.105C364.051 231.066 364.05 231.025 364.04 230.986C364.03 230.947 364.012 230.911 363.986 230.88Z" fill="#48CAE4"/>
<path d="M406.805 195.113L405.292 192.954C405.202 192.83 405.067 192.746 404.917 192.718C404.766 192.69 404.61 192.721 404.481 192.804L402.242 194.316C402.116 194.404 402.029 194.537 401.999 194.688C401.969 194.839 401.998 194.995 402.08 195.125L403.461 197.255C403.547 197.383 403.679 197.474 403.83 197.507C403.981 197.541 404.139 197.515 404.271 197.435L406.637 195.947C406.703 195.903 406.76 195.847 406.804 195.782C406.848 195.716 406.879 195.643 406.895 195.565C406.91 195.488 406.91 195.408 406.895 195.33C406.88 195.253 406.849 195.179 406.805 195.113Z" fill="#48CAE4"/>
<path d="M400.891 186.559L399.378 184.406C399.287 184.282 399.153 184.198 399.002 184.17C398.851 184.142 398.696 184.173 398.567 184.256L396.327 185.762C396.202 185.85 396.115 185.984 396.084 186.134C396.054 186.285 396.083 186.441 396.165 186.571L397.552 188.701C397.638 188.828 397.769 188.917 397.919 188.95C398.068 188.984 398.225 188.959 398.357 188.881L400.723 187.399C400.789 187.356 400.847 187.299 400.892 187.233C400.936 187.167 400.968 187.093 400.983 187.015C400.999 186.936 400.999 186.856 400.983 186.778C400.967 186.7 400.936 186.625 400.891 186.559Z" fill="#48CAE4"/>
<path d="M402.777 197.879L401.264 195.714C401.173 195.59 401.039 195.506 400.888 195.478C400.738 195.45 400.582 195.481 400.453 195.564L398.213 197.069C398.088 197.158 398.001 197.291 397.971 197.442C397.94 197.593 397.969 197.749 398.051 197.879L399.438 200.008C399.524 200.135 399.655 200.225 399.805 200.258C399.954 200.292 400.111 200.267 400.243 200.188L402.609 198.707C402.74 198.619 402.832 198.483 402.863 198.327C402.895 198.172 402.864 198.011 402.777 197.879Z" fill="#48CAE4"/>
<path d="M398.549 200.8L397.06 198.646C396.97 198.523 396.836 198.438 396.685 198.41C396.534 198.383 396.378 198.413 396.25 198.496L394.01 200.002C393.883 200.091 393.795 200.225 393.764 200.377C393.734 200.529 393.764 200.687 393.848 200.818L395.229 202.947C395.316 203.075 395.448 203.164 395.599 203.196C395.75 203.229 395.908 203.202 396.04 203.121L398.405 201.639C398.47 201.594 398.526 201.536 398.568 201.469C398.61 201.402 398.639 201.328 398.653 201.25C398.666 201.171 398.664 201.092 398.646 201.014C398.628 200.937 398.596 200.864 398.549 200.8Z" fill="#48CAE4"/>
<path d="M394.274 203.761L392.761 201.602C392.671 201.477 392.535 201.391 392.383 201.363C392.231 201.335 392.074 201.367 391.945 201.452L389.711 202.964C389.584 203.051 389.496 203.184 389.465 203.335C389.433 203.486 389.461 203.643 389.543 203.773L390.93 205.903C391.016 206.031 391.148 206.122 391.299 206.155C391.45 206.189 391.608 206.163 391.74 206.083L394.106 204.595C394.172 204.552 394.229 204.495 394.273 204.43C394.317 204.364 394.348 204.291 394.364 204.213C394.379 204.136 394.38 204.056 394.364 203.978C394.349 203.901 394.318 203.827 394.274 203.761Z" fill="#48CAE4"/>
<path d="M396.958 189.481L395.445 187.315C395.354 187.192 395.22 187.107 395.069 187.079C394.918 187.051 394.763 187.082 394.634 187.165L392.394 188.671C392.268 188.759 392.181 188.893 392.151 189.043C392.121 189.194 392.15 189.351 392.232 189.481L393.619 191.61C393.705 191.737 393.836 191.826 393.986 191.86C394.135 191.893 394.292 191.868 394.424 191.79L396.79 190.308C396.921 190.22 397.013 190.084 397.044 189.929C397.076 189.774 397.045 189.613 396.958 189.481Z" fill="#48CAE4"/>
<path d="M392.731 192.407L391.218 190.248C391.127 190.124 390.993 190.04 390.842 190.012C390.691 189.984 390.536 190.015 390.407 190.098L388.167 191.609C388.041 191.697 387.953 191.83 387.921 191.981C387.89 192.131 387.918 192.288 387.999 192.419L389.386 194.549C389.472 194.677 389.604 194.768 389.755 194.801C389.906 194.835 390.065 194.809 390.197 194.728L392.563 193.241C392.629 193.197 392.685 193.141 392.73 193.076C392.774 193.01 392.805 192.936 392.82 192.859C392.836 192.782 392.836 192.702 392.821 192.624C392.805 192.547 392.775 192.473 392.731 192.407Z" fill="#48CAE4"/>
<path d="M388.456 195.365L386.943 193.211C386.852 193.086 386.717 193.001 386.565 192.973C386.412 192.945 386.255 192.977 386.126 193.062L383.892 194.567C383.766 194.655 383.678 194.788 383.646 194.938C383.615 195.089 383.643 195.246 383.724 195.377L385.111 197.512C385.197 197.641 385.329 197.731 385.48 197.765C385.631 197.798 385.79 197.772 385.922 197.692L388.282 196.205C388.349 196.161 388.407 196.105 388.452 196.04C388.498 195.974 388.529 195.899 388.546 195.821C388.562 195.743 388.562 195.662 388.547 195.584C388.531 195.506 388.5 195.431 388.456 195.365Z" fill="#48CAE4"/>
<path d="M389.993 206.719L388.48 204.565C388.389 204.442 388.255 204.357 388.104 204.329C387.953 204.301 387.798 204.332 387.669 204.415L385.429 205.909C385.304 205.997 385.217 206.131 385.186 206.281C385.156 206.432 385.185 206.589 385.267 206.719L386.654 208.848C386.74 208.975 386.871 209.064 387.021 209.098C387.17 209.131 387.327 209.106 387.459 209.028L389.825 207.54C389.955 207.452 390.045 207.317 390.076 207.164C390.108 207.01 390.078 206.85 389.993 206.719Z" fill="#48CAE4"/>
<path d="M385.717 209.676L384.204 207.522C384.114 207.399 383.979 207.314 383.828 207.286C383.678 207.259 383.522 207.289 383.393 207.372L381.154 208.908C381.027 208.996 380.939 209.128 380.908 209.279C380.876 209.43 380.904 209.587 380.985 209.718L382.373 211.847C382.458 211.975 382.591 212.066 382.742 212.099C382.893 212.133 383.051 212.107 383.183 212.027L385.549 210.545C385.62 210.502 385.681 210.444 385.729 210.375C385.777 210.307 385.809 210.229 385.825 210.148C385.841 210.066 385.839 209.981 385.821 209.9C385.802 209.819 385.767 209.742 385.717 209.676Z" fill="#48CAE4"/>
<path d="M381.628 212.903L379.749 210.228C379.729 210.199 379.703 210.173 379.673 210.153C379.643 210.133 379.61 210.12 379.575 210.113C379.539 210.106 379.503 210.107 379.468 210.114C379.433 210.122 379.4 210.136 379.37 210.156L376.644 212.01C376.614 212.029 376.588 212.054 376.567 212.084C376.547 212.114 376.533 212.147 376.526 212.182C376.518 212.217 376.518 212.254 376.525 212.289C376.532 212.324 376.546 212.358 376.566 212.388L378.289 215.033C378.308 215.063 378.333 215.09 378.363 215.111C378.392 215.132 378.426 215.147 378.461 215.155C378.496 215.162 378.533 215.163 378.568 215.157C378.604 215.15 378.638 215.137 378.668 215.117L381.574 213.317C381.606 213.295 381.634 213.266 381.654 213.232C381.674 213.199 381.688 213.161 381.693 213.122C381.698 213.083 381.695 213.044 381.684 213.006C381.672 212.968 381.654 212.933 381.628 212.903Z" fill="#48CAE4"/>
<path d="M377.845 215.506L375.966 212.825C375.922 212.767 375.858 212.727 375.787 212.715C375.715 212.703 375.642 212.718 375.581 212.759L372.831 214.606C372.772 214.649 372.731 214.712 372.717 214.783C372.702 214.854 372.715 214.928 372.753 214.99L374.482 217.635C374.522 217.696 374.584 217.739 374.654 217.755C374.725 217.77 374.799 217.758 374.861 217.719L377.761 215.92C377.797 215.901 377.829 215.875 377.853 215.843C377.878 215.81 377.895 215.773 377.903 215.733C377.911 215.693 377.91 215.652 377.9 215.613C377.89 215.574 377.871 215.537 377.845 215.506Z" fill="#48CAE4"/>
<path d="M373.599 218.458L371.72 215.777C371.678 215.719 371.615 215.68 371.544 215.667C371.474 215.655 371.401 215.67 371.342 215.711L368.592 217.558C368.531 217.599 368.489 217.663 368.475 217.734C368.46 217.806 368.474 217.88 368.514 217.942L370.237 220.587C370.277 220.647 370.339 220.689 370.409 220.704C370.48 220.72 370.553 220.708 370.615 220.671L373.521 218.872C373.558 218.853 373.59 218.827 373.614 218.795C373.639 218.762 373.656 218.724 373.663 218.684C373.671 218.644 373.669 218.603 373.658 218.563C373.647 218.524 373.627 218.488 373.599 218.458Z" fill="#48CAE4"/>
<path d="M369.498 221.295L367.637 218.62C367.617 218.59 367.591 218.565 367.561 218.545C367.531 218.525 367.498 218.511 367.463 218.505C367.427 218.498 367.391 218.498 367.356 218.506C367.321 218.513 367.288 218.528 367.258 218.548L364.508 220.401C364.448 220.442 364.407 220.504 364.392 220.574C364.377 220.645 364.391 220.719 364.43 220.779L366.153 223.424C366.193 223.485 366.255 223.528 366.325 223.544C366.396 223.559 366.47 223.547 366.532 223.508L369.438 221.709C369.472 221.688 369.502 221.66 369.524 221.627C369.546 221.594 369.561 221.556 369.566 221.516C369.572 221.477 369.569 221.436 369.557 221.398C369.545 221.36 369.525 221.325 369.498 221.295Z" fill="#48CAE4"/>
<path d="M395.733 196.745L394.226 194.585C394.135 194.46 394 194.375 393.848 194.347C393.696 194.319 393.538 194.351 393.409 194.436L391.169 195.947C391.044 196.036 390.957 196.169 390.927 196.32C390.897 196.47 390.925 196.627 391.007 196.757L392.394 198.886C392.481 199.014 392.614 199.103 392.765 199.135C392.916 199.168 393.073 199.141 393.205 199.06L395.565 197.579C395.631 197.535 395.688 197.479 395.732 197.413C395.776 197.348 395.807 197.274 395.822 197.197C395.838 197.119 395.838 197.039 395.823 196.962C395.808 196.884 395.777 196.811 395.733 196.745Z" fill="#48CAE4"/>
<path d="M391.458 199.701L389.945 197.548C389.855 197.423 389.721 197.338 389.57 197.309C389.42 197.28 389.263 197.309 389.134 197.392L386.894 198.903C386.768 198.992 386.681 199.125 386.651 199.276C386.621 199.427 386.65 199.583 386.732 199.713L388.119 201.843C388.205 201.969 388.336 202.059 388.486 202.092C388.635 202.126 388.792 202.101 388.924 202.022L391.29 200.535C391.356 200.491 391.412 200.435 391.457 200.37C391.501 200.304 391.532 200.23 391.547 200.153C391.563 200.076 391.563 199.996 391.548 199.918C391.532 199.841 391.502 199.767 391.458 199.701Z" fill="#48CAE4"/>
<path d="M387.183 202.66L385.652 200.512C385.561 200.387 385.426 200.301 385.273 200.274C385.121 200.246 384.964 200.277 384.835 200.362L382.649 201.862C382.523 201.949 382.434 202.082 382.403 202.233C382.372 202.384 382.4 202.541 382.481 202.672L383.868 204.801C383.954 204.929 384.086 205.02 384.237 205.053C384.388 205.087 384.547 205.061 384.679 204.981L387.045 203.499C387.109 203.453 387.164 203.395 387.206 203.328C387.248 203.261 387.276 203.186 387.289 203.108C387.302 203.03 387.299 202.95 387.281 202.873C387.263 202.796 387.229 202.724 387.183 202.66Z" fill="#48CAE4"/>
<path d="M382.901 205.616L381.388 203.463C381.297 203.339 381.163 203.255 381.012 203.227C380.862 203.199 380.706 203.23 380.577 203.313L378.337 204.818C378.212 204.907 378.125 205.04 378.095 205.191C378.065 205.342 378.093 205.498 378.175 205.628L379.562 207.757C379.648 207.884 379.779 207.974 379.929 208.007C380.078 208.041 380.235 208.016 380.367 207.937L382.733 206.456C382.8 206.412 382.857 206.356 382.902 206.29C382.947 206.224 382.978 206.149 382.993 206.071C383.009 205.993 383.009 205.912 382.993 205.834C382.977 205.756 382.946 205.682 382.901 205.616Z" fill="#48CAE4"/>
<path d="M378.818 208.843L376.938 206.168C376.918 206.138 376.892 206.113 376.861 206.093C376.831 206.073 376.797 206.059 376.761 206.053C376.726 206.046 376.689 206.046 376.653 206.054C376.618 206.061 376.584 206.076 376.554 206.096L373.804 207.95C373.744 207.99 373.702 208.052 373.688 208.123C373.673 208.193 373.687 208.267 373.726 208.328L375.449 210.979C375.469 211.009 375.495 211.035 375.525 211.056C375.556 211.076 375.589 211.09 375.625 211.098C375.661 211.105 375.698 211.105 375.734 211.098C375.769 211.091 375.803 211.077 375.834 211.057L378.734 209.257C378.769 209.238 378.8 209.211 378.824 209.179C378.848 209.146 378.864 209.109 378.872 209.07C378.88 209.03 378.88 208.99 378.87 208.951C378.861 208.911 378.843 208.875 378.818 208.843Z" fill="#48CAE4"/>
<path d="M375.029 211.463L373.15 208.788C373.13 208.758 373.104 208.733 373.074 208.713C373.044 208.693 373.011 208.679 372.976 208.673C372.94 208.666 372.904 208.666 372.869 208.674C372.834 208.681 372.801 208.696 372.771 208.716L370.039 210.563C369.979 210.605 369.937 210.668 369.923 210.739C369.908 210.811 369.922 210.886 369.961 210.947L371.685 213.592C371.725 213.652 371.787 213.694 371.857 213.709C371.927 213.725 372.001 213.713 372.063 213.676L374.969 211.877C375.003 211.856 375.031 211.827 375.053 211.794C375.074 211.761 375.088 211.723 375.094 211.684C375.1 211.644 375.097 211.604 375.086 211.566C375.075 211.528 375.055 211.493 375.029 211.463Z" fill="#48CAE4"/>
<path d="M370.789 214.398L368.91 211.717C368.867 211.658 368.803 211.619 368.731 211.607C368.659 211.594 368.586 211.61 368.526 211.651L365.781 213.498C365.721 213.539 365.679 213.603 365.665 213.674C365.65 213.746 365.664 213.82 365.703 213.882L367.427 216.527C367.466 216.588 367.528 216.631 367.599 216.646C367.67 216.662 367.744 216.649 367.805 216.611L370.711 214.812C370.746 214.792 370.776 214.765 370.8 214.732C370.823 214.699 370.839 214.662 370.846 214.623C370.854 214.583 370.853 214.543 370.843 214.504C370.833 214.465 370.815 214.429 370.789 214.398Z" fill="#48CAE4"/>
<path d="M366.682 217.234L364.802 214.559C364.782 214.529 364.756 214.503 364.725 214.483C364.695 214.464 364.661 214.45 364.625 214.443C364.589 214.437 364.553 214.437 364.517 214.444C364.482 214.452 364.448 214.466 364.418 214.487L361.674 216.34C361.644 216.36 361.618 216.385 361.597 216.415C361.577 216.444 361.563 216.478 361.555 216.513C361.548 216.548 361.548 216.584 361.555 216.62C361.562 216.655 361.576 216.688 361.596 216.718L363.319 219.369C363.339 219.4 363.364 219.426 363.394 219.446C363.423 219.466 363.457 219.481 363.492 219.488C363.527 219.495 363.564 219.495 363.599 219.488C363.634 219.481 363.668 219.467 363.698 219.447L366.604 217.648C366.638 217.627 366.667 217.6 366.69 217.567C366.713 217.535 366.728 217.497 366.736 217.458C366.743 217.419 366.742 217.379 366.733 217.34C366.724 217.302 366.706 217.265 366.682 217.234Z" fill="#48CAE4"/>
<path d="M365.391 224.138L363.512 221.457C363.468 221.399 363.404 221.359 363.333 221.347C363.261 221.335 363.188 221.35 363.127 221.391L360.377 223.238C360.317 223.28 360.275 223.343 360.261 223.414C360.246 223.486 360.26 223.561 360.299 223.622L362.023 226.267C362.063 226.327 362.125 226.369 362.195 226.384C362.265 226.4 362.339 226.388 362.401 226.351L365.307 224.552C365.343 224.533 365.375 224.507 365.399 224.475C365.424 224.442 365.441 224.405 365.449 224.365C365.457 224.325 365.456 224.284 365.446 224.245C365.436 224.206 365.417 224.169 365.391 224.138Z" fill="#48CAE4"/>
<path d="M361.284 226.975L359.404 224.3C359.384 224.27 359.358 224.244 359.327 224.225C359.297 224.205 359.263 224.191 359.227 224.184C359.191 224.178 359.155 224.178 359.119 224.186C359.084 224.193 359.05 224.208 359.02 224.228L356.27 226.081C356.21 226.122 356.168 226.184 356.154 226.254C356.139 226.325 356.153 226.399 356.192 226.459L357.915 229.105C357.935 229.135 357.96 229.162 357.99 229.183C358.02 229.204 358.054 229.219 358.09 229.227C358.125 229.235 358.162 229.235 358.198 229.229C358.234 229.222 358.269 229.208 358.299 229.188L361.2 227.389C361.236 227.371 361.267 227.344 361.292 227.312C361.317 227.28 361.333 227.242 361.342 227.202C361.35 227.163 361.349 227.121 361.339 227.082C361.329 227.043 361.31 227.006 361.284 226.975Z" fill="#48CAE4"/>
<path d="M367.727 209.983L365.956 207.458C365.899 207.379 365.814 207.326 365.719 207.309C365.623 207.293 365.525 207.313 365.445 207.368L362.833 209.113C362.753 209.168 362.697 209.252 362.678 209.347C362.659 209.443 362.678 209.542 362.731 209.623L364.352 212.118C364.406 212.199 364.49 212.256 364.586 212.276C364.681 212.297 364.781 212.279 364.863 212.226L367.601 210.505C367.645 210.48 367.684 210.447 367.714 210.406C367.744 210.366 367.766 210.32 367.778 210.271C367.79 210.222 367.792 210.171 367.783 210.122C367.774 210.072 367.755 210.025 367.727 209.983Z" fill="#48CAE4"/>
<path d="M363.62 212.819L361.849 210.3C361.822 210.26 361.787 210.226 361.747 210.2C361.706 210.173 361.661 210.155 361.614 210.146C361.566 210.137 361.517 210.138 361.47 210.148C361.423 210.157 361.378 210.177 361.338 210.204L358.744 211.955C358.664 212.009 358.609 212.092 358.59 212.186C358.571 212.281 358.59 212.379 358.642 212.459L360.264 214.954C360.318 215.035 360.401 215.092 360.496 215.114C360.591 215.135 360.691 215.119 360.774 215.068L363.518 213.347C363.56 213.319 363.595 213.283 363.623 213.242C363.651 213.2 363.67 213.153 363.679 213.104C363.689 213.055 363.689 213.005 363.678 212.956C363.668 212.907 363.648 212.86 363.62 212.819Z" fill="#48CAE4"/>
<path d="M359.512 215.662L357.711 213.137C357.655 213.059 357.571 213.006 357.477 212.989C357.383 212.972 357.286 212.993 357.207 213.047L354.607 214.792C354.526 214.847 354.471 214.931 354.452 215.026C354.432 215.122 354.452 215.221 354.505 215.302L356.126 217.797C356.18 217.879 356.263 217.935 356.359 217.956C356.454 217.976 356.554 217.958 356.636 217.905L359.38 216.184C359.425 216.16 359.464 216.127 359.495 216.087C359.526 216.047 359.548 216.001 359.561 215.952C359.573 215.903 359.575 215.852 359.567 215.802C359.559 215.752 359.54 215.704 359.512 215.662Z" fill="#48CAE4"/>
<path d="M355.466 218.583L353.587 215.902C353.543 215.844 353.479 215.804 353.408 215.792C353.336 215.78 353.263 215.796 353.202 215.836L350.452 217.684C350.393 217.726 350.352 217.789 350.339 217.861C350.325 217.933 350.34 218.007 350.38 218.067L352.103 220.713C352.143 220.773 352.205 220.816 352.275 220.832C352.346 220.848 352.42 220.835 352.482 220.797L355.388 218.997C355.423 218.977 355.453 218.95 355.476 218.918C355.5 218.885 355.516 218.848 355.523 218.808C355.531 218.769 355.529 218.728 355.519 218.69C355.51 218.651 355.491 218.614 355.466 218.583Z" fill="#48CAE4"/>
<path d="M404.068 190.914L402.464 188.599C402.373 188.475 402.237 188.39 402.085 188.364C401.933 188.337 401.776 188.37 401.648 188.455L395.259 192.9C395.136 192.989 395.051 193.122 395.022 193.271C394.993 193.42 395.022 193.575 395.103 193.703L396.64 196.067C396.684 196.132 396.741 196.188 396.806 196.232C396.872 196.275 396.946 196.306 397.024 196.321C397.101 196.336 397.181 196.335 397.258 196.32C397.336 196.304 397.409 196.273 397.475 196.229L403.918 191.724C404.041 191.634 404.126 191.5 404.154 191.349C404.182 191.198 404.151 191.043 404.068 190.914Z" fill="#48CAE4"/>
<path d="M362.563 219.988L360.57 217.174C360.549 217.144 360.523 217.119 360.493 217.099C360.462 217.079 360.428 217.066 360.392 217.06C360.356 217.053 360.319 217.055 360.284 217.063C360.248 217.071 360.215 217.087 360.186 217.108L353.328 221.907C353.269 221.948 353.229 222.011 353.215 222.081C353.202 222.152 353.216 222.225 353.256 222.285L355.136 225.176C355.156 225.207 355.182 225.234 355.212 225.255C355.243 225.276 355.278 225.291 355.314 225.298C355.351 225.305 355.388 225.305 355.424 225.297C355.461 225.29 355.495 225.275 355.526 225.254L362.497 220.377C362.557 220.334 362.598 220.269 362.61 220.196C362.623 220.123 362.606 220.048 362.563 219.988Z" fill="#48CAE4"/>
<path d="M384.378 198.471L382.577 195.802C382.535 195.742 382.472 195.7 382.4 195.685C382.329 195.671 382.254 195.685 382.192 195.724L366.97 205.981C366.94 206 366.914 206.025 366.894 206.055C366.873 206.085 366.859 206.118 366.852 206.153C366.844 206.188 366.844 206.225 366.851 206.26C366.858 206.295 366.872 206.329 366.892 206.359L368.766 209.238C368.786 209.269 368.812 209.296 368.843 209.317C368.873 209.338 368.908 209.352 368.944 209.36C368.981 209.367 369.018 209.367 369.055 209.359C369.091 209.352 369.126 209.337 369.156 209.316L384.336 198.855C384.392 198.809 384.428 198.743 384.436 198.672C384.443 198.6 384.423 198.528 384.378 198.471Z" fill="#48CAE4"/>
<path opacity="0.1" d="M384.45 189.307L376.356 177.556C376.132 177.23 375.788 177.005 375.399 176.931C375.009 176.857 374.607 176.939 374.278 177.16L351.983 192.114C351.819 192.225 351.678 192.367 351.569 192.532C351.46 192.698 351.384 192.883 351.347 193.077C351.309 193.272 351.311 193.471 351.351 193.665C351.391 193.859 351.469 194.043 351.58 194.207L359.831 206.293C359.942 206.458 360.084 206.598 360.25 206.707C360.416 206.816 360.601 206.891 360.796 206.928C360.991 206.965 361.191 206.962 361.385 206.922C361.579 206.881 361.763 206.802 361.927 206.689L384.066 191.388C384.228 191.277 384.367 191.135 384.474 190.97C384.581 190.805 384.655 190.62 384.691 190.427C384.726 190.234 384.724 190.035 384.682 189.843C384.641 189.651 384.562 189.468 384.45 189.307Z" fill="black"/>
<path d="M384.822 189.38L376.728 177.629C376.503 177.304 376.159 177.08 375.77 177.006C375.382 176.932 374.979 177.014 374.65 177.233L352.385 192.199C352.219 192.309 352.078 192.45 351.967 192.615C351.857 192.78 351.781 192.966 351.743 193.16C351.705 193.355 351.706 193.555 351.746 193.749C351.786 193.944 351.864 194.128 351.976 194.292L360.203 206.366C360.314 206.53 360.456 206.671 360.622 206.78C360.788 206.889 360.973 206.964 361.168 207.001C361.363 207.037 361.563 207.035 361.757 206.994C361.951 206.953 362.135 206.875 362.299 206.762L384.45 191.461C384.611 191.349 384.749 191.206 384.855 191.041C384.961 190.875 385.034 190.691 385.068 190.497C385.103 190.304 385.099 190.106 385.057 189.914C385.015 189.722 384.935 189.541 384.822 189.38Z" fill="#939498"/>
<path d="M435.016 208.369L417.842 202.646L362.761 240.867L379.809 246.415C380.268 246.565 380.756 246.606 381.235 246.535C381.713 246.464 382.168 246.283 382.565 246.007L435.172 209.466C435.274 209.406 435.356 209.317 435.408 209.21C435.459 209.103 435.478 208.983 435.461 208.865C435.445 208.748 435.393 208.638 435.314 208.549C435.235 208.461 435.131 208.398 435.016 208.369Z" fill="#591A92"/>
</svg>
